<svg width="24" height="21" viewBox="0 0 24 21" fill="none" xmlns="http://www.w3.org/2000/svg">
<g clip-path="url(#clip0_3_354)">
<path d="M21.4244 2.52426C20.8799 1.99573 20.2333 1.57647 19.5217 1.29042C18.8101 1.00438 18.0474 0.857147 17.2771 0.857147C16.5068 0.857147 15.7441 1.00438 15.0325 1.29042C14.3209 1.57647 13.6743 1.99573 13.1298 2.52426L11.9997 3.62061L10.8696 2.52426C9.76965 1.45718 8.27782 0.8577 6.72228 0.8577C5.16674 0.8577 3.67491 1.45718 2.57498 2.52426C1.47505 3.59133 0.857117 5.0386 0.857117 6.54767C0.857117 8.05675 1.47505 9.50402 2.57498 10.5711L3.70509 11.6674L11.9997 19.7143L20.2943 11.6674L21.4244 10.5711C21.9692 10.0428 22.4014 9.41559 22.6962 8.72524C22.9911 8.03489 23.1428 7.29494 23.1428 6.54767C23.1428 5.80041 22.9911 5.06046 22.6962 4.37011C22.4014 3.67976 21.9692 3.05253 21.4244 2.52426V2.52426Z" stroke="black" stroke-linecap="round" stroke-linejoin="round"/>
</g>
<defs>
<clipPath id="clip0_3_354">
<rect width="24" height="20.5714" fill="white"/>
</clipPath>
</defs>
</svg>
